<mxfile host="65bd71144e">
    <diagram id="s1gUrIjZ7Dg-Y3bCtvPx" name="Use Case">
        <mxGraphModel dx="1245" dy="490" grid="1" gridSize="10" guides="1" tooltips="1" connect="1" arrows="1" fold="1" page="1" pageScale="1" pageWidth="800" pageHeight="600" background="#FFFFFF" math="0" shadow="0">
            <root>
                <mxCell id="0"/>
                <mxCell id="1" parent="0"/>
                <mxCell id="wg1iYPNUejnfwWIsUKUp-9" style="edgeStyle=orthogonalEdgeStyle;shape=connector;rounded=1;html=1;strokeColor=default;align=center;verticalAlign=bottom;fontFamily=Helvetica;fontSize=11;fontColor=default;labelBackgroundColor=default;endArrow=none;endFill=0;endSize=12;startArrow=block;startFill=0;" parent="1" source="wg1iYPNUejnfwWIsUKUp-1" target="wg1iYPNUejnfwWIsUKUp-8" edge="1">
                    <mxGeometry relative="1" as="geometry">
                        <Array as="points">
                            <mxPoint x="125" y="300"/>
                            <mxPoint x="125" y="360"/>
                        </Array>
                    </mxGeometry>
                </mxCell>
                <mxCell id="wg1iYPNUejnfwWIsUKUp-1" value="Cliente" style="shape=umlActor;html=1;verticalLabelPosition=bottom;verticalAlign=top;align=center;" parent="1" vertex="1">
                    <mxGeometry x="55" y="270" width="30" height="60" as="geometry"/>
                </mxCell>
                <mxCell id="wg1iYPNUejnfwWIsUKUp-5" value="Trasacoes Bancarias" style="shape=rect;html=1;verticalAlign=top;fontStyle=1;whiteSpace=wrap;align=center;" parent="1" vertex="1">
                    <mxGeometry x="225" y="180" width="460" height="240" as="geometry"/>
                </mxCell>
                <mxCell id="wg1iYPNUejnfwWIsUKUp-6" value="" style="edgeStyle=orthogonalEdgeStyle;html=1;endArrow=none;endFill=0;endSize=12;verticalAlign=bottom;startArrow=blockThin;startFill=0;" parent="1" source="wg1iYPNUejnfwWIsUKUp-1" target="wg1iYPNUejnfwWIsUKUp-7" edge="1">
                    <mxGeometry width="160" relative="1" as="geometry">
                        <mxPoint x="65" y="440" as="sourcePoint"/>
                        <mxPoint x="225" y="440" as="targetPoint"/>
                        <Array as="points">
                            <mxPoint x="125" y="300"/>
                            <mxPoint x="125" y="230"/>
                        </Array>
                    </mxGeometry>
                </mxCell>
                <mxCell id="wg1iYPNUejnfwWIsUKUp-18" style="shape=connector;rounded=1;html=1;strokeColor=default;align=center;verticalAlign=bottom;fontFamily=Helvetica;fontSize=11;fontColor=default;labelBackgroundColor=default;endArrow=none;endFill=0;endSize=12;" parent="1" source="wg1iYPNUejnfwWIsUKUp-7" target="wg1iYPNUejnfwWIsUKUp-11" edge="1">
                    <mxGeometry relative="1" as="geometry"/>
                </mxCell>
                <mxCell id="wg1iYPNUejnfwWIsUKUp-7" value="Usuário" style="shape=umlActor;html=1;verticalLabelPosition=bottom;verticalAlign=top;align=center;" parent="1" vertex="1">
                    <mxGeometry x="165" y="200" width="30" height="60" as="geometry"/>
                </mxCell>
                <mxCell id="wg1iYPNUejnfwWIsUKUp-8" value="Lojista" style="shape=umlActor;html=1;verticalLabelPosition=bottom;verticalAlign=top;align=center;" parent="1" vertex="1">
                    <mxGeometry x="175" y="330" width="30" height="60" as="geometry"/>
                </mxCell>
                <mxCell id="wg1iYPNUejnfwWIsUKUp-23" style="shape=connector;rounded=1;html=1;strokeColor=default;align=center;verticalAlign=bottom;fontFamily=Helvetica;fontSize=11;fontColor=default;labelBackgroundColor=default;endArrow=none;endFill=0;endSize=12;jettySize=auto;" parent="1" source="wg1iYPNUejnfwWIsUKUp-10" target="wg1iYPNUejnfwWIsUKUp-12" edge="1">
                    <mxGeometry relative="1" as="geometry"/>
                </mxCell>
                <mxCell id="wg1iYPNUejnfwWIsUKUp-10" value="Banco" style="shape=umlActor;html=1;verticalLabelPosition=bottom;verticalAlign=top;align=center;" parent="1" vertex="1">
                    <mxGeometry x="715" y="230" width="30" height="60" as="geometry"/>
                </mxCell>
                <mxCell id="wg1iYPNUejnfwWIsUKUp-11" value="Efetuar Transferencia" style="ellipse;whiteSpace=wrap;html=1;fontFamily=Helvetica;fontSize=11;fontColor=default;labelBackgroundColor=default;" parent="1" vertex="1">
                    <mxGeometry x="255" y="210" width="130" height="40" as="geometry"/>
                </mxCell>
                <mxCell id="wg1iYPNUejnfwWIsUKUp-12" value="Validar Saldo" style="ellipse;whiteSpace=wrap;html=1;fontFamily=Helvetica;fontSize=11;fontColor=default;labelBackgroundColor=default;" parent="1" vertex="1">
                    <mxGeometry x="505" y="215" width="120" height="45" as="geometry"/>
                </mxCell>
                <mxCell id="wg1iYPNUejnfwWIsUKUp-13" value="&amp;lt;&amp;lt;include&amp;gt;&amp;gt;" style="edgeStyle=none;html=1;endArrow=open;verticalAlign=bottom;dashed=1;labelBackgroundColor=default;rounded=1;strokeColor=default;align=center;fontFamily=Helvetica;fontSize=11;fontColor=default;endSize=12;" parent="1" source="wg1iYPNUejnfwWIsUKUp-11" target="wg1iYPNUejnfwWIsUKUp-12" edge="1">
                    <mxGeometry x="-0.0177" y="-6" width="160" relative="1" as="geometry">
                        <mxPoint x="385" y="310" as="sourcePoint"/>
                        <mxPoint x="545" y="310" as="targetPoint"/>
                        <mxPoint as="offset"/>
                    </mxGeometry>
                </mxCell>
                <mxCell id="wg1iYPNUejnfwWIsUKUp-15" value="Negar Tranferência" style="ellipse;whiteSpace=wrap;html=1;fontFamily=Helvetica;fontSize=11;fontColor=default;labelBackgroundColor=default;" parent="1" vertex="1">
                    <mxGeometry x="505" y="285" width="120" height="45" as="geometry"/>
                </mxCell>
                <mxCell id="wg1iYPNUejnfwWIsUKUp-16" value="&amp;lt;&amp;lt;extend&amp;gt;&amp;gt;" style="edgeStyle=none;html=1;endArrow=open;verticalAlign=bottom;dashed=1;labelBackgroundColor=default;rounded=1;strokeColor=default;align=center;fontFamily=Helvetica;fontSize=11;fontColor=default;endSize=12;" parent="1" source="wg1iYPNUejnfwWIsUKUp-15" target="wg1iYPNUejnfwWIsUKUp-11" edge="1">
                    <mxGeometry x="-0.0413" y="8" width="160" relative="1" as="geometry">
                        <mxPoint x="401" y="283" as="sourcePoint"/>
                        <mxPoint x="548" y="264" as="targetPoint"/>
                        <mxPoint as="offset"/>
                    </mxGeometry>
                </mxCell>
                <mxCell id="wg1iYPNUejnfwWIsUKUp-22" style="shape=connector;rounded=1;html=1;exitX=0;exitY=1;exitDx=0;exitDy=0;strokeColor=default;align=center;verticalAlign=bottom;fontFamily=Helvetica;fontSize=11;fontColor=default;labelBackgroundColor=default;endArrow=none;endFill=0;endSize=12;" parent="1" source="wg1iYPNUejnfwWIsUKUp-19" target="wg1iYPNUejnfwWIsUKUp-8" edge="1">
                    <mxGeometry relative="1" as="geometry"/>
                </mxCell>
                <mxCell id="wg1iYPNUejnfwWIsUKUp-19" value="Receber Transferencia" style="ellipse;whiteSpace=wrap;html=1;fontFamily=Helvetica;fontSize=11;fontColor=default;labelBackgroundColor=default;" parent="1" vertex="1">
                    <mxGeometry x="255" y="320" width="130" height="40" as="geometry"/>
                </mxCell>
                <mxCell id="wg1iYPNUejnfwWIsUKUp-21" style="shape=connector;rounded=1;html=1;strokeColor=default;align=center;verticalAlign=bottom;fontFamily=Helvetica;fontSize=11;fontColor=default;labelBackgroundColor=default;endArrow=none;endFill=0;endSize=12;" parent="1" source="wg1iYPNUejnfwWIsUKUp-7" target="wg1iYPNUejnfwWIsUKUp-19" edge="1">
                    <mxGeometry relative="1" as="geometry">
                        <mxPoint x="205" y="240" as="sourcePoint"/>
                        <mxPoint x="265" y="240" as="targetPoint"/>
                    </mxGeometry>
                </mxCell>
                <mxCell id="wg1iYPNUejnfwWIsUKUp-24" style="shape=connector;rounded=1;html=1;strokeColor=default;align=center;verticalAlign=bottom;fontFamily=Helvetica;fontSize=11;fontColor=default;labelBackgroundColor=default;endArrow=none;endFill=0;endSize=12;jettySize=auto;" parent="1" source="wg1iYPNUejnfwWIsUKUp-10" target="wg1iYPNUejnfwWIsUKUp-15" edge="1">
                    <mxGeometry relative="1" as="geometry">
                        <mxPoint x="725" y="304" as="sourcePoint"/>
                        <mxPoint x="647" y="274" as="targetPoint"/>
                    </mxGeometry>
                </mxCell>
                <mxCell id="wg1iYPNUejnfwWIsUKUp-27" value="Atualizar Saldo" style="ellipse;whiteSpace=wrap;html=1;fontFamily=Helvetica;fontSize=11;fontColor=default;labelBackgroundColor=default;" parent="1" vertex="1">
                    <mxGeometry x="500" y="345" width="120" height="45" as="geometry"/>
                </mxCell>
                <mxCell id="wg1iYPNUejnfwWIsUKUp-28" value="&amp;lt;&amp;lt;include&amp;gt;&amp;gt;" style="edgeStyle=none;html=1;endArrow=open;verticalAlign=bottom;dashed=1;labelBackgroundColor=default;rounded=1;strokeColor=default;align=center;fontFamily=Helvetica;fontSize=11;fontColor=default;endSize=12;" parent="1" source="wg1iYPNUejnfwWIsUKUp-19" target="wg1iYPNUejnfwWIsUKUp-27" edge="1">
                    <mxGeometry x="-0.0177" y="-6" width="160" relative="1" as="geometry">
                        <mxPoint x="380" y="362" as="sourcePoint"/>
                        <mxPoint x="540" y="440" as="targetPoint"/>
                        <mxPoint as="offset"/>
                    </mxGeometry>
                </mxCell>
                <mxCell id="wg1iYPNUejnfwWIsUKUp-29" value="&amp;lt;&amp;lt;extend&amp;gt;&amp;gt;" style="edgeStyle=none;html=1;endArrow=open;verticalAlign=bottom;dashed=1;labelBackgroundColor=default;rounded=1;strokeColor=default;align=center;fontFamily=Helvetica;fontSize=11;fontColor=default;endSize=12;" parent="1" source="wg1iYPNUejnfwWIsUKUp-27" target="wg1iYPNUejnfwWIsUKUp-11" edge="1">
                    <mxGeometry x="-0.0413" y="8" width="160" relative="1" as="geometry">
                        <mxPoint x="529" y="303" as="sourcePoint"/>
                        <mxPoint x="375" y="254" as="targetPoint"/>
                        <mxPoint as="offset"/>
                    </mxGeometry>
                </mxCell>
                <mxCell id="wg1iYPNUejnfwWIsUKUp-30" style="shape=connector;rounded=1;html=1;strokeColor=default;align=center;verticalAlign=bottom;fontFamily=Helvetica;fontSize=11;fontColor=default;labelBackgroundColor=default;endArrow=none;endFill=0;endSize=12;jettySize=auto;" parent="1" source="wg1iYPNUejnfwWIsUKUp-10" target="wg1iYPNUejnfwWIsUKUp-27" edge="1">
                    <mxGeometry relative="1" as="geometry">
                        <mxPoint x="725" y="274" as="sourcePoint"/>
                        <mxPoint x="623" y="304" as="targetPoint"/>
                    </mxGeometry>
                </mxCell>
            </root>
        </mxGraphModel>
    </diagram>
</mxfile>